# xmcd
#
# Track frame offsets: 
#        150
#        18556
#        37435
#        52580
#        71652
#        88786
#        103385
#        122229
#        137340
#        157809
#
# Disc length: 2201 seconds
#
# Revision: 2
# Processed by: cddbd v1.5.2PL0 Copyright (c) Steve Scherf et al.
# Submitted via: ExactAudioCopyFreeDBPlugin 1.0
#
DISCID=8608970a
DTITLE=Sofa - Sofa
DYEAR=2004
DGENRE=
TTITLE0=เรื่องมหัศจรรย์
TTITLE1=จะเก็บเรื่องราวของเราเอาไว้
TTITLE2=ก็
TTITLE3=High
TTITLE4=เพราะว่าเธอควรอยู่กับฉัน
TTITLE5=แต่
TTITLE6=ใจร้าย
TTITLE7=หาก
TTITLE8=ความรัก
TTITLE9=สะกด
EXTD=
EXTT0=
EXTT1=
EXTT2=
EXTT3=
EXTT4=
EXTT5=
EXTT6=
EXTT7=
EXTT8=
EXTT9=
PLAYORDER=
